<?xml version="1.0" standalone="no"?>
<!DOCTYPE svg PUBLIC "-//W3C//DTD SVG 20010904//EN"
 "http://www.w3.org/TR/2001/REC-SVG-20010904/DTD/svg10.dtd">
<svg version="1.0" xmlns="http://www.w3.org/2000/svg"
 width="512.000000pt" height="512.000000pt" viewBox="0 0 512.000000 512.000000"
 preserveAspectRatio="xMidYMid meet">

<g transform="translate(0.000000,512.000000) scale(0.100000,-0.100000)"
fill="#ffffff" stroke="none">
<path d="M2490 4296 c-1048 -123 -1928 -229 -1957 -236 -51 -11 -152 -69 -185
-106 -29 -34 -37 -67 -23 -100 23 -56 75 -59 131 -8 72 67 88 70 550 124 236
27 506 59 599 70 94 11 499 58 900 105 402 46 1001 116 1331 155 331 38 619
70 640 70 102 -1 206 -90 228 -195 9 -47 266 -2264 266 -2299 0 -43 -41 -125
-81 -163 -44 -42 -89 -59 -170 -68 l-66 -7 -6 51 c-8 65 -21 89 -54 97 -42 11
-77 -7 -90 -46 -8 -25 -12 -149 -12 -421 l-1 -385 -25 -51 c-28 -55 -77 -99
-134 -119 -29 -11 -429 -13 -2011 -13 -1966 -1 -1975 0 -2020 20 -55 25 -95
62 -123 114 l-22 40 0 1195 0 1195 28 48 c36 60 94 103 160 117 37 8 602 10
2012 8 1889 -3 1961 -4 1995 -22 45 -23 97 -73 118 -111 15 -27 18 -99 22
-687 l5 -657 22 -22 c29 -29 77 -29 106 0 l22 22 3 592 c2 351 -1 625 -7 674
-22 176 -131 305 -296 347 -52 14 -280 16 -2017 16 -1394 0 -1972 -3 -2010
-11 -153 -32 -276 -154 -308 -307 -7 -30 -9 -464 -8 -1232 l3 -1185 23 -58
c33 -81 116 -168 201 -210 l66 -32 2025 0 2025 0 67 32 c129 61 209 171 228
313 5 41 10 179 10 305 l0 231 91 11 c112 15 196 52 261 117 61 60 106 153
114 231 4 44 -30 363 -125 1185 -72 619 -136 1148 -141 1175 -16 78 -55 148
-115 204 -78 74 -146 103 -254 107 -65 2 -554 -52 -1991 -220z"/>
<path d="M3813 3070 c-29 -12 -46 -46 -40 -79 3 -14 20 -66 39 -116 32 -87 33
-95 33 -235 0 -139 -2 -149 -34 -235 -44 -119 -47 -145 -23 -175 23 -28 73
-31 101 -6 23 21 64 116 87 201 25 93 30 285 9 386 -21 106 -69 223 -102 249
-28 22 -37 23 -70 10z"/>
<path d="M3501 2904 c-26 -34 -26 -38 4 -128 33 -99 33 -173 -1 -277 -30 -90
-25 -120 21 -141 60 -27 111 29 140 154 27 120 13 263 -35 358 -33 65 -92 81
-129 34z"/>
<path d="M3233 2775 c-37 -26 -45 -50 -32 -95 10 -31 9 -49 0 -81 -10 -35 -10
-44 4 -65 75 -114 189 27 143 177 -19 65 -73 94 -115 64z"/>
<path d="M670 2749 c-84 -17 -158 -87 -181 -172 -6 -24 -9 -119 -7 -241 3
-173 6 -206 22 -236 26 -49 64 -88 111 -113 38 -21 56 -22 310 -25 178 -3 288
0 322 8 69 15 122 55 156 118 l28 52 -3 228 -3 229 -30 48 c-21 33 -47 57 -85
79 l-55 31 -270 2 c-148 1 -290 -3 -315 -8z m584 -168 l26 -24 0 -197 c0 -182
-1 -198 -20 -218 -29 -31 -59 -33 -332 -30 -319 4 -292 -17 -296 231 -2 111 1
193 7 210 20 52 50 57 333 54 256 -2 256 -2 282 -26z"/>
<path d="M821 2404 c-27 -35 -26 -57 3 -91 24 -28 26 -28 136 -28 105 0 113 1
131 24 25 30 24 76 -1 101 -18 18 -33 20 -134 20 -112 0 -115 -1 -135 -26z"/>
<path d="M503 1684 c-20 -20 -24 -31 -19 -57 13 -63 3 -62 385 -65 340 -3 348
-2 374 18 34 27 37 80 7 110 -19 19 -33 20 -370 20 l-351 0 -26 -26z"/>
<path d="M1470 1690 c-30 -30 -27 -83 6 -109 26 -20 38 -21 360 -21 226 0 341
4 358 11 51 23 55 103 7 128 -13 7 -141 11 -365 11 -333 0 -347 -1 -366 -20z"/>
<path d="M2432 1687 c-29 -31 -28 -72 3 -102 l24 -25 346 0 346 0 24 25 c30
30 32 64 4 99 l-20 26 -353 0 -353 0 -21 -23z"/>
<path d="M3395 1685 c-30 -29 -32 -64 -6 -96 l19 -24 349 -3 c342 -3 350 -2
376 18 34 27 37 80 7 110 -19 19 -33 20 -370 20 l-351 0 -24 -25z"/>
<path d="M505 1285 c-14 -13 -25 -36 -25 -50 0 -14 11 -37 25 -50 l24 -25 825
0 c453 0 832 3 841 6 24 10 46 60 39 89 -14 57 24 55 -877 55 l-828 0 -24 -25z"/>
</g>
</svg>
