<?xml version="1.0" standalone="no"?>
<!DOCTYPE svg PUBLIC "-//W3C//DTD SVG 20010904//EN"
 "http://www.w3.org/TR/2001/REC-SVG-20010904/DTD/svg10.dtd">
<svg version="1.0" xmlns="http://www.w3.org/2000/svg"
 width="512.000000pt" height="512.000000pt" viewBox="0 0 512.000000 512.000000"
 preserveAspectRatio="xMidYMid meet">

<g transform="translate(0.000000,512.000000) scale(0.100000,-0.100000)"
fill="#ffffff" stroke="none">
<path d="M1640 4955 c-36 -8 -108 -35 -160 -61 -157 -78 -276 -214 -338 -386
-24 -66 -26 -87 -26 -218 0 -138 1 -149 30 -225 53 -138 132 -244 239 -320
217 -155 467 -176 705 -59 176 87 308 251 356 444 22 84 22 236 0 320 -56 224
-230 412 -447 484 -104 35 -258 44 -359 21z m284 -125 c193 -49 344 -198 401
-395 24 -83 22 -221 -4 -305 -61 -194 -224 -344 -420 -386 -129 -27 -233 -13
-360 48 -341 164 -419 617 -151 889 141 143 340 199 534 149z"/>
<path d="M1325 3543 c-306 -19 -426 -65 -586 -224 -71 -70 -94 -102 -127 -170
-68 -140 -72 -180 -72 -657 0 -393 1 -420 18 -435 17 -15 56 -17 361 -17 321
0 342 -1 337 -17 -3 -10 -10 -47 -16 -83 -30 -190 6 -406 99 -590 l38 -76
-300 -254 c-415 -353 -431 -369 -457 -438 -42 -109 -10 -250 76 -336 104 -104
283 -125 393 -46 21 16 168 181 326 367 158 186 293 344 299 351 10 10 29 5
97 -27 150 -71 228 -86 429 -85 162 0 182 2 265 28 265 81 474 245 600 471
l36 65 638 2 638 3 49 30 c30 19 60 49 79 79 l30 49 0 692 0 692 -30 48 c-17
27 -50 63 -74 80 l-43 30 -193 3 -192 3 -5 102 c-7 149 -53 233 -159 292 l-54
30 -415 0 -415 0 -53 -29 c-50 -28 -98 -73 -120 -112 -9 -16 -14 -14 -53 20
-53 46 -183 109 -264 130 -107 27 -293 36 -715 34 -228 -1 -437 -3 -465 -5z
m555 -113 c0 -5 -5 -21 -12 -35 -10 -23 -16 -25 -83 -25 -67 0 -73 2 -83 25
-16 34 -16 33 16 38 55 8 162 7 162 -3z m-295 -62 l28 -62 -22 -91 c-12 -49
-25 -96 -30 -103 -5 -9 -46 34 -136 145 l-128 158 39 6 c21 3 80 7 130 8 l91
1 28 -62z m680 52 c5 -9 -220 -300 -244 -314 -7 -5 -30 64 -56 175 -5 19 2 44
24 88 l31 61 120 0 c67 0 121 -4 125 -10z m-938 -232 c98 -123 182 -228 186
-234 3 -6 -10 -68 -29 -137 -18 -70 -34 -135 -34 -145 0 -10 23 -44 51 -75
l51 -57 -53 -58 c-62 -67 -132 -173 -173 -260 l-30 -62 -98 0 -98 0 0 285 c0
272 -1 286 -20 305 -11 11 -29 20 -40 20 -11 0 -29 -9 -40 -20 -19 -19 -20
-33 -20 -305 l0 -285 -160 0 -160 0 0 373 c0 412 5 458 61 568 44 88 162 205
250 248 54 26 136 55 170 60 4 1 87 -99 186 -221z m1183 200 c56 -16 161 -76
218 -125 l52 -45 0 -69 0 -69 -182 0 c-164 0 -186 -2 -225 -21 -81 -39 -133
-124 -133 -217 l0 -40 -67 -4 c-38 -2 -71 -1 -74 2 -4 3 -16 37 -27 76 l-20
72 186 231 c204 253 181 235 272 209z m1310 -18 c22 -11 52 -39 67 -62 25 -37
28 -50 28 -132 l0 -91 -505 0 -505 0 -3 75 c-5 113 24 172 103 213 26 14 83
16 403 17 355 0 375 -1 412 -20z m-1970 -124 c0 -2 27 -106 61 -231 33 -125
58 -233 55 -241 -3 -8 -11 -14 -18 -14 -26 -1 -175 -68 -238 -107 l-64 -41
-33 36 c-18 20 -32 42 -33 47 0 6 32 133 72 283 l73 272 62 0 c35 0 63 -2 63
-4z m2558 -302 c45 -31 52 -62 52 -232 0 -177 -11 -235 -62 -314 -36 -58 -87
-99 -165 -136 -57 -27 -60 -27 -268 -27 l-209 0 -6 30 c-9 42 -28 70 -64 91
-28 17 -55 19 -276 19 -237 0 -246 -1 -284 -23 -21 -13 -40 -22 -41 -20 -2 2
-23 31 -48 65 -99 134 -221 233 -378 307 -89 42 -232 86 -279 86 -21 0 -22 3
-18 57 4 48 10 61 37 85 l31 28 978 0 c870 0 980 -2 1000 -16z m-1938 -294
c475 -137 748 -632 609 -1105 -81 -276 -301 -496 -589 -591 -79 -26 -97 -28
-250 -29 -143 0 -176 3 -243 23 -576 166 -826 831 -502 1334 62 96 182 211
283 271 85 52 212 100 302 116 92 16 304 6 390 -19z m1980 -1083 c-7 -25 -22
-45 -43 -57 -31 -19 -55 -20 -625 -20 -560 0 -593 1 -588 18 27 86 39 172 40
282 0 69 -3 137 -7 153 l-7 27 215 0 c228 0 248 3 289 49 10 11 21 35 25 53
l7 33 214 6 c126 4 232 11 255 18 57 18 143 66 190 105 l40 34 3 -332 c2 -220
-1 -344 -8 -369z m-821 679 c7 -9 11 -41 9 -83 l-3 -68 -221 -3 -222 -2 -6 22
c-11 42 -7 136 7 141 6 3 105 6 218 6 166 1 209 -2 218 -13z m-2096 -1161 c48
-47 87 -88 87 -90 0 -2 -17 -24 -39 -48 l-38 -45 -97 97 -96 97 42 36 c24 20
46 37 49 37 3 1 45 -37 92 -84z m-169 -174 c91 -91 98 -101 85 -118 -8 -10
-105 -125 -217 -256 -144 -168 -214 -243 -237 -253 -53 -22 -106 -17 -166 14
-43 22 -59 38 -81 81 -47 89 -34 164 38 232 65 61 465 399 472 399 4 0 52 -45
106 -99z"/>
<path d="M2125 2569 c-319 -49 -565 -272 -645 -583 -25 -99 -27 -257 -4 -359
57 -255 256 -478 502 -561 197 -67 397 -57 581 30 297 140 466 422 448 748
-18 329 -241 608 -559 700 -100 29 -234 39 -323 25z m272 -135 c182 -47 342
-175 423 -341 52 -104 74 -211 67 -328 -15 -274 -183 -496 -446 -589 -76 -27
-99 -30 -201 -31 -194 0 -329 55 -466 190 -69 67 -89 95 -127 175 -54 113 -67
170 -67 293 0 178 64 332 189 457 170 169 400 233 628 174z"/>
</g>
</svg>
