<?xml version="1.0" standalone="no"?>
<!DOCTYPE svg PUBLIC "-//W3C//DTD SVG 20010904//EN"
 "http://www.w3.org/TR/2001/REC-SVG-20010904/DTD/svg10.dtd">
<svg version="1.0" xmlns="http://www.w3.org/2000/svg"
 width="512.000000pt" height="512.000000pt" viewBox="0 0 512.000000 512.000000"
 preserveAspectRatio="xMidYMid meet">

<g transform="translate(0.000000,512.000000) scale(0.100000,-0.100000)"
fill="#ffffff" stroke="none">
<path d="M2545 4936 c-51 -23 -108 -78 -120 -115 l-6 -21 -1026 0 c-776 0
-1036 -3 -1067 -12 -55 -16 -138 -99 -154 -154 -9 -30 -12 -163 -12 -473 l0
-432 25 -24 c32 -33 78 -33 110 0 l25 24 0 431 0 431 25 24 24 25 1016 0 1015
0 0 -80 0 -80 -935 0 -936 0 -24 -25 -25 -24 0 -1151 0 -1151 25 -24 24 -25
1871 0 1871 0 24 25 25 24 0 536 0 535 80 0 80 0 0 -615 0 -616 -25 -24 -24
-25 -2031 0 -2031 0 -24 25 -25 24 0 551 0 551 -25 24 c-32 33 -78 33 -110 0
l-25 -24 0 -552 c0 -404 3 -563 12 -593 16 -55 99 -138 154 -154 60 -18 4088
-18 4148 0 55 16 138 99 154 154 9 31 12 203 12 658 l0 616 56 0 c31 0 75 5
98 12 55 16 138 99 154 154 17 59 17 1369 0 1428 -16 55 -99 138 -154 154 -31
9 -302 12 -1120 12 l-1079 0 -50 -24z m2230 -161 l25 -24 0 -671 0 -671 -25
-24 -24 -25 -710 0 -710 0 -223 -191 -223 -190 -5 171 c-6 217 -1 210 -162
210 -102 0 -110 1 -133 25 l-25 24 0 671 0 671 25 24 24 25 1071 0 1071 0 24
-25z m-2375 -917 l0 -463 24 -51 c27 -59 90 -116 145 -132 21 -7 64 -12 95
-12 l56 0 0 -215 c0 -216 0 -216 25 -240 51 -52 60 -46 365 215 l280 240 385
0 385 0 0 -480 0 -480 -798 0 -798 0 -11 71 c-37 239 -242 409 -494 409 l-59
0 0 101 0 102 39 42 c76 82 121 205 121 327 0 55 3 68 15 68 9 0 27 11 40 25
25 24 25 27 25 187 0 113 -5 182 -15 221 -45 173 -178 307 -350 352 -80 20
-310 20 -390 0 -178 -47 -321 -197 -355 -374 -5 -30 -10 -123 -10 -208 0 -150
1 -155 25 -178 13 -14 31 -25 40 -25 12 0 15 -13 15 -68 0 -122 45 -245 121
-327 l39 -42 0 -102 0 -101 -62 0 c-250 -1 -454 -171 -491 -410 l-11 -70 -78
0 -78 0 0 1040 0 1040 880 0 880 0 0 -462z m-505 112 c64 -31 124 -92 154
-155 19 -40 25 -72 29 -155 l5 -105 -66 63 c-44 42 -73 62 -90 62 -14 0 -62
-20 -108 -44 -46 -25 -127 -59 -179 -77 -83 -29 -111 -33 -227 -37 l-133 -4 0
104 c0 164 37 251 137 320 75 51 111 58 278 55 136 -2 155 -5 200 -27z m103
-670 c-4 -122 -25 -177 -93 -245 -66 -67 -125 -90 -225 -89 -100 0 -160 24
-226 89 -61 61 -87 124 -92 221 l-4 81 103 6 c122 6 245 39 364 96 l80 39 48
-47 49 -46 -4 -105z m-318 -493 c58 0 117 5 133 11 l27 12 0 -94 c0 -85 -2
-95 -25 -120 -69 -74 -201 -74 -270 0 -23 25 -25 35 -25 120 l0 94 28 -12 c15
-6 74 -11 132 -11z m-249 -301 c70 -77 128 -100 249 -100 122 0 179 23 251
101 l50 55 92 -4 c71 -3 103 -9 142 -28 95 -46 168 -143 181 -243 l7 -47 -722
0 c-680 0 -721 1 -721 18 1 83 62 192 136 243 63 43 114 58 207 58 l78 1 50
-54z"/>
<path d="M3305 4535 l-25 -24 0 -431 0 -431 25 -24 c14 -15 35 -25 52 -25 19
1 140 71 368 213 269 168 342 218 349 240 22 60 13 68 -349 294 -230 144 -349
213 -368 213 -16 0 -38 -10 -52 -25z m340 -327 c107 -68 195 -125 195 -128 0
-5 -372 -240 -392 -248 -4 -2 -8 109 -8 247 0 138 2 251 5 251 3 0 93 -55 200
-122z"/>
<path d="M185 3495 c-22 -21 -25 -33 -25 -95 0 -62 3 -74 25 -95 15 -16 36
-25 55 -25 19 0 40 9 55 25 22 21 25 33 25 95 0 62 -3 74 -25 95 -15 16 -36
25 -55 25 -19 0 -40 -9 -55 -25z"/>
<path d="M786 1590 c-63 -16 -153 -70 -197 -117 -22 -24 -55 -74 -72 -111 -31
-65 -32 -71 -32 -202 0 -135 0 -136 35 -205 19 -39 36 -73 38 -76 2 -4 -13
-10 -32 -13 -116 -22 -261 -140 -316 -258 -39 -83 -50 -147 -50 -285 0 -108 1
-115 25 -138 l24 -25 671 0 671 0 24 25 c24 23 25 30 25 147 0 191 -35 292
-138 400 -57 60 -161 121 -228 134 -19 3 -34 9 -32 13 2 3 19 37 38 76 35 69
35 70 35 205 l0 136 -37 76 c-68 136 -188 217 -336 224 -42 2 -94 -1 -116 -6z
m177 -166 c59 -20 121 -82 141 -141 21 -60 21 -186 0 -246 -32 -96 -141 -165
-243 -155 -95 9 -178 74 -207 160 -21 64 -16 218 9 265 57 108 182 157 300
117z m292 -733 c114 -56 176 -155 183 -288 l5 -83 -562 0 -561 0 0 63 c0 122
46 216 136 278 82 56 99 58 439 56 307 -2 311 -2 360 -26z"/>
<path d="M2466 1590 c-63 -16 -153 -70 -197 -117 -22 -24 -55 -74 -72 -111
-31 -65 -32 -71 -32 -202 0 -135 0 -136 35 -205 19 -39 36 -73 38 -76 2 -4
-13 -10 -32 -13 -67 -13 -171 -74 -228 -134 -103 -108 -138 -209 -138 -400 0
-117 1 -124 25 -147 l24 -25 671 0 671 0 24 25 c24 23 25 30 25 147 0 191 -35
292 -138 400 -57 60 -161 121 -228 134 -19 3 -34 9 -32 13 2 3 19 37 38 76 35
69 35 70 35 205 l0 136 -37 76 c-68 136 -188 217 -336 224 -42 2 -94 -1 -116
-6z m177 -166 c59 -20 121 -82 141 -141 9 -27 16 -80 16 -123 0 -97 -21 -158
-71 -209 -123 -123 -340 -73 -395 91 -21 64 -16 218 9 265 57 108 182 157 300
117z m289 -731 c60 -27 127 -95 158 -158 17 -36 25 -72 28 -132 l5 -83 -562 0
-561 0 0 63 c0 122 46 216 136 278 82 56 99 58 439 56 295 -2 312 -3 357 -24z"/>
<path d="M4146 1590 c-63 -16 -153 -70 -197 -117 -22 -24 -55 -74 -72 -111
-31 -65 -32 -71 -32 -202 0 -135 0 -136 35 -205 19 -39 36 -73 38 -76 2 -4
-13 -10 -32 -13 -67 -13 -171 -74 -228 -134 -103 -108 -138 -209 -138 -400 0
-117 1 -124 25 -147 l24 -25 671 0 671 0 24 25 c24 23 25 30 25 147 0 191 -35
292 -138 400 -57 60 -161 121 -228 134 -19 3 -34 9 -32 13 2 3 19 37 38 76 35
69 35 70 35 205 l0 136 -37 76 c-68 136 -188 217 -336 224 -42 2 -94 -1 -116
-6z m177 -166 c59 -20 121 -82 141 -141 9 -27 16 -80 16 -123 0 -97 -21 -158
-71 -209 -122 -121 -339 -73 -393 87 -21 59 -21 185 0 245 41 121 179 185 307
141z m302 -739 c111 -57 175 -167 175 -302 l0 -63 -560 0 -560 0 0 63 c0 121
47 217 137 279 81 55 99 57 439 55 l310 -2 59 -30z"/>
</g>
</svg>
