<?xml version="1.0" standalone="no"?>
<!DOCTYPE svg PUBLIC "-//W3C//DTD SVG 20010904//EN"
 "http://www.w3.org/TR/2001/REC-SVG-20010904/DTD/svg10.dtd">
<svg version="1.0" xmlns="http://www.w3.org/2000/svg"
 width="660.000000pt" height="260.000000pt" viewBox="0 0 660.000000 260.000000"
 preserveAspectRatio="xMidYMid meet">

<g transform="translate(0.000000,260.000000) scale(0.100000,-0.100000)"
fill="#000000" stroke="none">
<path d="M549 2566 c-53 -19 -83 -43 -190 -153 -139 -143 -188 -222 -235 -380
-21 -70 -26 -109 -26 -193 0 -150 18 -196 163 -430 66 -107 118 -184 113 -170
-45 150 -27 341 46 497 47 101 85 149 251 319 93 94 165 175 174 197 19 45 20
137 2 180 -48 113 -184 174 -298 133z"/>
<path d="M4647 1995 c-146 -30 -283 -122 -363 -242 -21 -32 -51 -96 -68 -143
-28 -79 -30 -95 -30 -220 0 -119 3 -145 27 -216 77 -233 260 -378 506 -403 86
-9 208 0 282 19 130 35 283 156 346 275 62 117 90 275 73 408 -32 255 -185
441 -420 512 -76 23 -266 28 -353 10z m305 -252 c70 -32 141 -103 174 -176 27
-57 29 -71 29 -182 0 -109 -2 -125 -26 -176 -82 -175 -265 -247 -464 -182 -71
23 -164 117 -194 197 -70 188 -9 407 135 492 73 43 121 54 214 51 60 -2 99
-10 132 -24z"/>
<path d="M2004 1986 c-122 -28 -210 -89 -259 -178 -24 -44 -30 -68 -33 -138
-5 -100 6 -149 48 -213 53 -79 126 -114 405 -196 184 -53 237 -158 112 -223
-30 -15 -66 -23 -124 -26 -75 -4 -87 -2 -145 25 -35 16 -84 51 -111 77 l-48
48 -90 -88 -91 -89 44 -39 c58 -53 164 -121 225 -145 203 -80 479 -17 581 133
71 105 82 253 27 355 -58 106 -142 160 -360 231 -193 63 -235 88 -235 140 0
56 82 100 190 100 80 0 120 -14 179 -65 29 -25 56 -45 61 -45 7 0 46 30 179
137 8 6 -73 83 -125 119 -115 79 -291 112 -430 80z"/>
<path d="M2930 1380 l0 -612 308 4 307 3 67 33 c224 110 287 410 122 583 l-35
35 28 60 c25 52 28 70 28 159 0 89 -3 106 -27 150 -35 68 -97 128 -166 162
l-57 28 -287 3 -288 3 0 -611z m566 336 c39 -39 45 -86 19 -136 -26 -51 -59
-60 -208 -60 -73 0 -136 2 -138 4 -2 2 -3 54 -1 115 l3 111 146 0 145 0 34
-34z m29 -452 c92 -43 89 -168 -5 -232 -32 -21 -41 -22 -193 -20 l-158 3 0
128 c0 70 0 129 1 132 0 3 72 5 161 5 126 0 168 -3 194 -16z"/>
<path d="M5670 1870 l0 -120 150 0 150 0 0 -490 0 -490 115 0 115 0 0 490 0
489 153 3 152 3 3 118 3 117 -421 0 -420 0 0 -120z"/>
<path d="M885 1495 c23 -62 29 -100 29 -195 0 -119 -18 -195 -69 -307 -51
-110 -86 -155 -260 -333 -151 -154 -163 -169 -175 -218 -31 -130 39 -251 165
-288 63 -18 134 -8 189 26 43 26 236 225 275 283 48 71 88 163 112 257 18 69
21 104 17 194 -6 142 -17 169 -159 399 -110 180 -140 222 -124 182z"/>
<path d="M1702 504 c-14 -9 -22 -26 -22 -43 0 -24 7 -32 38 -45 62 -28 67 -32
67 -57 0 -21 -5 -24 -38 -27 -21 -2 -45 2 -53 9 -8 6 -18 9 -22 5 -13 -13 31
-36 68 -36 50 0 73 19 68 55 -2 24 -13 35 -55 58 -54 29 -63 43 -41 65 15 15
54 16 63 2 7 -12 35 -13 35 -2 0 11 -45 32 -68 32 -10 0 -28 -7 -40 -16z"/>
<path d="M1909 491 c-33 -34 -39 -92 -14 -140 17 -33 33 -41 84 -41 47 0 81
33 88 87 13 102 -89 162 -158 94z m116 -16 c51 -51 18 -145 -51 -145 -48 0
-74 29 -74 82 0 79 73 116 125 63z"/>
<path d="M2173 505 c-47 -33 -52 -118 -12 -170 16 -20 29 -25 63 -25 39 0 66
13 66 32 0 5 -9 4 -19 -2 -30 -16 -76 -12 -94 8 -36 40 -29 120 14 142 23 13
66 13 74 0 3 -5 14 -10 23 -10 14 1 13 4 -7 20 -28 24 -78 26 -108 5z"/>
<path d="M2360 415 c0 -63 4 -105 10 -105 6 0 10 42 10 105 0 63 -4 105 -10
105 -6 0 -10 -42 -10 -105z"/>
<path d="M2447 513 c-4 -3 -7 -51 -7 -105 l0 -98 65 0 c37 0 65 4 65 10 0 6
-25 10 -56 10 l-55 0 3 38 c3 37 3 37 51 40 60 4 52 22 -9 22 -45 0 -45 0 -42
33 3 31 4 32 56 35 30 2 50 7 47 13 -7 10 -108 13 -118 2z"/>
<path d="M2630 416 l0 -106 60 0 c81 0 110 26 110 99 0 75 -28 103 -108 109
l-62 4 0 -106z m124 62 c14 -13 26 -32 27 -43 6 -74 -19 -105 -86 -105 l-45 0
0 85 0 85 39 0 c27 0 48 -7 65 -22z"/>
<path d="M2910 428 c-17 -51 -34 -99 -37 -105 -2 -7 0 -13 7 -13 6 0 16 14 21
30 10 27 15 30 54 30 40 0 44 -2 50 -30 4 -17 13 -30 20 -30 10 0 4 27 -21 97
-19 53 -37 100 -40 105 -13 20 -24 2 -54 -84z m69 -25 c1 -8 -11 -13 -30 -13
-26 0 -30 3 -24 18 4 9 12 30 18 47 l10 29 13 -34 c7 -19 13 -41 13 -47z"/>
<path d="M3100 416 l0 -106 58 0 c68 0 96 16 112 65 27 80 -16 136 -110 143
l-60 4 0 -106z m127 60 c22 -19 28 -32 28 -66 0 -55 -29 -80 -91 -80 l-44 0 0
85 0 85 39 0 c28 0 49 -7 68 -24z"/>
<path d="M3340 415 l0 -105 60 0 c33 0 60 4 60 10 0 6 -22 10 -50 10 l-50 0 0
40 0 40 45 0 c25 0 45 5 45 10 0 6 -20 10 -45 10 -45 0 -45 0 -45 35 l0 35 50
0 c28 0 50 5 50 10 0 6 -27 10 -60 10 l-60 0 0 -105z"/>
<path d="M3777 513 c-4 -3 -7 -51 -7 -105 l0 -98 59 0 c41 0 65 5 75 16 18 17
22 69 6 79 -6 4 -7 23 -4 44 5 33 3 41 -17 55 -23 16 -99 22 -112 9z m106 -34
c19 -31 1 -49 -48 -49 -43 0 -45 1 -45 28 0 16 3 32 7 36 13 12 76 2 86 -15z
m1 -82 c11 -8 17 -23 14 -38 -3 -21 -8 -24 -55 -27 l-53 -3 0 34 c0 18 3 37 7
40 11 12 68 8 87 -6z"/>
<path d="M3990 518 c-1 -2 -2 -49 -3 -106 -2 -79 1 -102 11 -102 10 0 13 12
10 43 -2 38 -1 42 22 45 21 2 29 -5 50 -43 13 -25 30 -45 37 -45 7 0 2 16 -13
43 -24 44 -24 44 -4 62 48 43 9 105 -65 105 -25 0 -45 -1 -45 -2z m104 -40
c18 -29 -4 -53 -49 -53 -37 0 -39 1 -38 33 1 17 2 35 2 38 2 13 75 -2 85 -18z"/>
<path d="M4259 493 c-44 -113 -65 -183 -55 -183 6 0 17 13 23 30 10 26 16 30
51 30 35 0 41 -3 51 -30 5 -16 15 -30 22 -30 6 0 9 6 7 13 -3 6 -20 54 -38
105 -18 50 -37 92 -42 92 -4 0 -13 -12 -19 -27z m35 -47 c3 -13 9 -31 12 -40
5 -13 -1 -16 -25 -16 -34 0 -36 3 -20 49 13 37 25 40 33 7z"/>
<path d="M4462 504 c-43 -30 -22 -80 42 -101 35 -11 52 -34 43 -57 -8 -19 -77
-22 -95 -4 -6 6 -15 8 -19 4 -14 -13 29 -36 67 -36 50 0 73 19 68 55 -2 24
-13 35 -55 58 -54 29 -63 43 -41 65 15 15 54 16 63 2 7 -12 35 -13 35 -2 0 11
-45 32 -68 32 -10 0 -28 -7 -40 -16z"/>
<path d="M4640 416 c0 -64 4 -106 10 -106 6 0 10 40 10 99 0 56 -4 103 -10
106 -6 4 -10 -32 -10 -99z"/>
<path d="M4720 415 l0 -105 60 0 c33 0 60 4 60 10 0 6 -22 10 -50 10 l-50 0 0
95 c0 57 -4 95 -10 95 -6 0 -10 -42 -10 -105z"/>
<path d="M4908 415 l-3 -105 63 0 c34 0 62 4 62 10 0 6 -25 10 -56 10 l-55 0
3 38 c3 37 3 37 51 40 63 4 60 22 -4 22 l-50 0 3 33 c3 31 4 32 56 35 72 4 66
22 -7 22 l-60 0 -3 -105z"/>
<path d="M5090 415 c0 -63 4 -105 10 -105 6 0 10 42 10 105 0 63 -4 105 -10
105 -6 0 -10 -42 -10 -105z"/>
<path d="M5177 513 c-11 -10 -8 -203 2 -203 6 0 11 19 13 43 3 36 6 42 28 45
21 2 29 -5 49 -43 13 -25 28 -45 32 -45 13 0 11 6 -11 49 -19 38 -19 39 0 56
47 42 9 105 -63 105 -24 0 -47 -3 -50 -7z m94 -23 c21 -12 25 -40 7 -58 -7 -7
-29 -12 -50 -12 -36 0 -38 1 -38 33 0 19 3 37 7 40 10 10 52 8 74 -3z"/>
<path d="M5456 512 c-3 -5 -21 -52 -40 -105 -25 -70 -31 -97 -21 -97 7 0 16
14 20 30 6 28 10 30 50 30 39 0 44 -3 54 -30 5 -16 15 -30 22 -30 6 0 8 7 4
18 -3 9 -20 56 -37 105 -29 82 -40 99 -52 79z m27 -64 c2 -13 8 -31 12 -40 6
-15 2 -18 -24 -18 -35 0 -35 -1 -20 51 13 41 24 43 32 7z"/>
<path d="M5840 416 l0 -106 59 0 c50 0 62 4 85 26 36 36 37 110 3 150 -20 23
-34 28 -85 32 l-62 4 0 -106z m130 59 c14 -13 20 -31 20 -62 0 -58 -25 -83
-85 -83 l-45 0 0 86 0 87 45 -6 c25 -2 55 -13 65 -22z"/>
<path d="M6080 415 l0 -105 60 0 c33 0 60 4 60 10 0 6 -22 10 -50 10 l-50 0 0
40 0 40 45 0 c25 0 45 5 45 10 0 6 -20 10 -45 10 -45 0 -45 0 -45 35 l0 35 50
0 c28 0 50 5 50 10 0 6 -27 10 -60 10 l-60 0 0 -105z"/>
<path d="M1709 217 c-65 -50 -47 -168 29 -195 95 -33 166 118 87 185 -29 26
-89 31 -116 10z m110 -33 c63 -80 -33 -191 -106 -122 -31 29 -32 99 -3 128 30
30 83 27 109 -6z"/>
<path d="M1900 125 c0 -63 4 -105 10 -105 6 0 10 20 10 45 0 43 1 45 29 45 23
0 32 -8 52 -45 13 -25 29 -45 36 -45 7 0 1 18 -14 46 l-25 45 21 15 c29 20 28
68 -1 88 -13 9 -43 16 -70 16 l-48 0 0 -105z m114 63 c18 -29 -4 -53 -50 -53
-38 0 -39 1 -42 38 l-3 38 42 -3 c27 -2 46 -9 53 -20z"/>
<path d="M2090 220 c0 -5 14 -10 30 -10 l30 0 0 -95 c0 -57 4 -95 10 -95 6 0
10 38 10 95 0 95 0 95 25 95 14 0 25 5 25 10 0 6 -28 10 -65 10 -37 0 -65 -4
-65 -10z"/>
<path d="M2295 206 c-71 -71 -13 -206 81 -188 32 6 70 46 77 81 8 40 -10 97
-36 116 -34 24 -94 19 -122 -9z m105 -6 c31 -16 44 -72 26 -114 -37 -88 -161
-38 -142 57 12 59 64 85 116 57z"/>
<path d="M2500 125 c0 -63 4 -105 10 -105 6 0 10 20 10 45 l0 45 40 0 c27 0
47 7 60 20 46 46 9 100 -70 100 l-50 0 0 -105z m110 66 c13 -25 13 -27 -6 -45
-8 -9 -31 -16 -50 -16 -33 0 -34 1 -34 40 0 40 0 40 40 40 29 0 42 -5 50 -19z"/>
<path d="M2680 125 l0 -105 65 0 c37 0 65 4 65 10 0 6 -25 10 -55 10 l-55 0 0
40 0 40 51 0 c31 0 48 4 44 10 -3 6 -26 10 -51 10 -44 0 -44 0 -44 35 l0 35
50 0 c28 0 50 5 50 10 0 6 -27 10 -60 10 l-60 0 0 -105z"/>
<path d="M2850 125 l0 -105 54 0 c44 0 60 5 85 26 27 23 31 32 31 79 0 47 -4
56 -31 79 -25 21 -41 26 -85 26 l-54 0 0 -105z m124 63 c24 -22 30 -39 27 -85
-2 -36 -39 -63 -88 -63 l-43 0 0 85 0 85 39 0 c27 0 48 -7 65 -22z"/>
<path d="M3070 125 c0 -63 4 -105 10 -105 6 0 10 42 10 105 0 63 -4 105 -10
105 -6 0 -10 -42 -10 -105z"/>
<path d="M3205 218 c-2 -7 -18 -50 -35 -96 -16 -46 -30 -88 -30 -93 0 -21 19
-7 29 21 9 27 14 30 51 30 37 0 42 -3 51 -30 10 -28 29 -42 29 -21 0 5 -15 51
-34 102 -32 89 -51 116 -61 87z m28 -50 c3 -13 9 -33 12 -45 7 -21 4 -23 -24
-23 -35 0 -35 -1 -19 51 13 44 23 49 31 17z"/>
<path d="M3490 125 l0 -105 60 0 c33 0 60 4 60 10 0 6 -22 10 -50 10 l-50 0 0
40 0 40 45 0 c25 0 45 5 45 10 0 6 -20 10 -45 10 -45 0 -45 0 -45 35 l0 35 50
0 c28 0 50 5 50 10 0 6 -27 10 -60 10 l-60 0 0 -105z"/>
<path d="M3760 220 c0 -5 11 -10 25 -10 25 0 25 0 25 -95 0 -57 4 -95 10 -95
6 0 10 38 10 95 0 95 0 95 25 95 14 0 25 5 25 10 0 6 -27 10 -60 10 -33 0 -60
-4 -60 -10z"/>
<path d="M3930 125 c0 -63 4 -105 10 -105 6 0 10 20 10 45 0 41 2 45 24 45 18
0 31 -11 50 -45 35 -58 52 -58 24 0 -20 42 -21 45 -5 63 9 10 17 30 17 44 0
38 -29 58 -83 58 l-47 0 0 -105z m94 79 c9 -4 16 -18 16 -34 0 -30 -15 -40
-61 -40 -27 0 -29 2 -29 40 0 38 2 40 29 40 16 0 36 -3 45 -6z"/>
<path d="M4162 148 c-16 -46 -33 -93 -36 -105 -11 -35 13 -28 25 7 10 27 15
30 54 30 40 0 44 -2 50 -30 4 -17 12 -30 20 -30 9 0 2 31 -24 105 -20 58 -41
105 -48 105 -6 0 -24 -37 -41 -82z m67 -35 c1 -8 -11 -13 -30 -13 -33 0 -33 3
-7 70 l10 25 13 -35 c8 -19 14 -41 14 -47z"/>
<path d="M4330 154 c0 -86 8 -107 51 -130 26 -13 36 -13 60 -3 48 19 59 45 59
131 0 45 -4 78 -10 78 -6 0 -10 -33 -10 -79 0 -91 -12 -111 -64 -111 -52 0
-66 24 -66 113 0 45 -4 77 -10 77 -6 0 -10 -32 -10 -76z"/>
<path d="M4540 125 c0 -125 18 -143 22 -22 l3 82 35 -58 36 -57 34 57 35 57 3
-82 c4 -120 22 -102 22 23 0 58 -4 105 -9 105 -4 0 -25 -27 -45 -60 -21 -33
-39 -60 -40 -60 -2 0 -20 27 -40 60 -21 33 -41 60 -47 60 -5 0 -9 -46 -9 -105z"/>
<path d="M4839 203 c-20 -50 -59 -166 -59 -175 0 -20 19 -5 29 22 9 27 14 30
51 30 37 0 42 -3 51 -30 10 -27 30 -42 29 -22 -1 23 -69 197 -79 200 -6 2 -16
-9 -22 -25z m30 -35 c25 -66 24 -68 -8 -68 -35 0 -35 -1 -19 51 13 45 16 47
27 17z"/>
<path d="M4940 220 c0 -5 11 -10 25 -10 25 0 25 0 25 -95 0 -57 4 -95 10 -95
6 0 10 38 10 95 0 95 0 95 25 95 14 0 25 5 25 10 0 6 -27 10 -60 10 -33 0 -60
-4 -60 -10z"/>
<path d="M5139 201 c-51 -51 -35 -140 30 -173 96 -48 181 94 102 173 -22 21
-39 29 -66 29 -27 0 -44 -8 -66 -29z m118 -13 c31 -29 32 -92 1 -125 -48 -51
-128 -12 -128 62 0 73 76 111 127 63z"/>
<path d="M5350 125 l0 -105 60 0 c33 0 60 4 60 10 0 6 -22 10 -50 10 l-50 0 0
95 c0 57 -4 95 -10 95 -6 0 -10 -42 -10 -105z"/>
<path d="M5559 217 c-65 -50 -47 -168 29 -195 95 -33 166 118 87 185 -29 26
-89 31 -116 10z m110 -33 c63 -80 -33 -191 -106 -122 -31 29 -32 99 -3 128 30
30 83 27 109 -6z"/>
<path d="M5793 215 c-26 -19 -44 -76 -36 -116 9 -44 49 -79 92 -79 54 1 71 19
71 74 l0 46 -40 0 c-22 0 -40 -4 -40 -10 0 -5 14 -10 30 -10 28 0 30 -3 30
-35 0 -29 -4 -36 -26 -41 -43 -11 -77 7 -92 48 -13 33 -12 41 4 75 17 35 22
38 59 37 22 0 48 -4 58 -8 9 -5 17 -4 17 1 0 14 -46 33 -78 33 -15 0 -37 -7
-49 -15z"/>
<path d="M5970 125 c0 -63 4 -105 10 -105 6 0 10 42 10 105 0 63 -4 105 -10
105 -6 0 -10 -42 -10 -105z"/>
<path d="M6069 125 c-26 -74 -33 -105 -24 -105 8 0 16 13 20 30 6 28 10 30 50
30 39 0 44 -3 54 -30 5 -16 15 -30 20 -30 15 0 16 -5 -25 109 -20 56 -41 101
-48 101 -6 0 -27 -47 -47 -105z m60 43 c25 -66 24 -68 -8 -68 -35 0 -35 -1
-19 51 13 45 16 47 27 17z"/>
</g>
</svg>
